<?xml version="1.0" standalone="no"?>
<!DOCTYPE svg PUBLIC "-//W3C//DTD SVG 20010904//EN"
 "http://www.w3.org/TR/2001/REC-SVG-20010904/DTD/svg10.dtd">
<svg version="1.0" xmlns="http://www.w3.org/2000/svg"
 width="960.000000pt" height="864.000000pt" viewBox="0 0 960.000000 864.000000"
 preserveAspectRatio="xMidYMid meet">
<metadata>
Created by potrace 1.15, written by Peter Selinger 2001-2017
</metadata>
<g transform="translate(0.000000,864.000000) scale(0.100000,-0.100000)"
fill="#000000" stroke="none">
<path d="M4445 6799 c-661 -64 -1252 -496 -1521 -1111 -94 -215 -142 -433
-151 -683 -10 -306 47 -582 178 -855 120 -250 272 -448 474 -620 l86 -73 45
21 c126 62 252 -11 270 -156 7 -60 15 -72 50 -72 12 0 27 -6 33 -14 10 -12
121 -56 141 -56 4 0 19 30 33 68 48 119 147 224 240 252 107 32 239 0 282 -68
11 -17 22 -31 25 -31 8 -1 58 128 52 134 -3 3 -47 5 -97 5 -80 0 -168 11 -292
36 -27 5 -33 3 -33 -10 0 -9 -7 -30 -15 -46 -20 -38 -210 -241 -242 -258 -32
-17 -75 -7 -107 25 -35 35 -34 87 3 161 16 31 38 93 49 137 11 44 23 87 26 95
4 11 -18 29 -75 63 -330 199 -567 537 -651 930 -29 136 -31 389 -5 522 38 193
122 396 228 552 72 105 263 294 369 364 107 71 241 138 345 172 287 95 619 96
891 3 403 -137 727 -449 875 -841 63 -167 89 -308 89 -491 0 -176 -16 -283
-65 -439 -87 -275 -278 -539 -513 -708 -90 -65 -255 -154 -347 -186 -53 -19
-62 -27 -79 -64 -11 -23 -21 -45 -23 -48 -2 -3 15 -6 37 -7 100 -4 169 -90
170 -211 1 -41 4 -48 34 -67 l33 -21 59 23 c32 14 95 42 140 65 l81 40 -1 82
c-1 183 100 336 254 384 38 12 91 17 174 18 l119 0 63 90 c274 394 381 925
283 1408 -190 938 -1060 1580 -2014 1486z"/>
<path d="M4435 5863 c-231 -49 -440 -191 -577 -392 -110 -161 -160 -324 -160
-521 -1 -276 99 -504 301 -692 172 -160 396 -248 632 -248 468 -1 857 334 930
800 15 101 6 275 -21 375 -90 341 -371 606 -723 680 -88 19 -290 18 -382 -2z
m305 -304 c53 -102 74 -199 65 -299 -13 -143 -67 -296 -150 -426 -44 -68 -148
-180 -186 -200 -27 -13 -27 -13 -34 32 -21 141 -120 229 -228 204 -46 -10 -75
-34 -93 -77 -27 -63 -12 -125 45 -187 l26 -29 -52 6 c-130 15 -217 112 -216
243 1 156 125 279 278 277 165 -2 273 -123 294 -328 l8 -70 18 40 c34 74 32
164 -10 310 -45 161 -54 272 -31 365 21 84 75 193 122 249 l38 44 32 -37 c18
-21 51 -74 74 -117z m420 -465 c70 -21 149 -98 173 -168 58 -168 -34 -326
-200 -343 l-57 -6 37 38 c64 66 72 157 18 214 -97 104 -328 23 -407 -144 -40
-84 -30 -169 29 -252 l29 -41 -33 -63 c-36 -67 -132 -179 -154 -179 -19 0 -35
79 -35 178 0 317 251 716 485 773 46 11 57 10 115 -7z"/>
<path d="M907 3740 c-52 -14 -86 -33 -125 -71 -90 -88 -136 -252 -98 -344 41
-96 189 -74 189 28 0 13 -17 48 -37 77 -28 41 -36 62 -36 97 0 86 63 148 160
160 52 6 160 -13 160 -29 0 -4 10 -8 23 -8 12 0 49 -13 82 -28 116 -55 195
-77 280 -77 63 0 88 4 115 20 47 28 60 72 34 116 -28 47 -64 56 -122 31 -82
-35 -107 -36 -272 -2 -168 34 -293 45 -353 30z"/>
<path d="M5848 3737 c-126 -36 -214 -150 -233 -301 -13 -109 56 -193 140 -172
73 18 84 83 28 164 -60 87 -46 174 38 229 66 44 131 43 264 -2 61 -21 130 -48
155 -60 71 -36 177 -58 244 -52 65 6 103 28 124 71 12 23 11 32 -5 64 -23 46
-60 62 -106 43 -108 -44 -139 -44 -337 -1 -123 27 -251 34 -312 17z"/>
<path d="M4842 3692 c-52 -56 -130 -236 -218 -502 -19 -56 -43 -101 -90 -163
-78 -104 -140 -149 -199 -145 -35 3 -42 7 -59 42 -17 34 -18 46 -8 99 20 104
117 274 175 303 28 15 31 15 43 -1 20 -26 3 -56 -59 -103 -44 -34 -58 -51 -63
-78 -9 -48 26 -85 81 -87 47 -1 83 36 114 117 53 142 4 251 -123 270 -73 11
-141 -17 -211 -87 -62 -63 -94 -125 -125 -247 -20 -76 2 -170 51 -223 10 -12
19 -24 19 -29 0 -4 7 -8 15 -8 8 0 15 -4 15 -9 0 -4 24 -16 53 -25 84 -26 154
-4 248 80 28 25 54 43 57 40 3 -3 6 -23 8 -43 1 -21 2 -44 3 -51 1 -18 43 -31
64 -20 9 5 17 19 17 31 0 54 176 331 276 434 52 55 73 65 75 36 3 -35 -3 -50
-61 -148 -32 -55 -68 -123 -78 -151 -49 -125 -22 -214 66 -214 90 0 231 73
295 153 25 30 32 49 35 97 4 56 2 61 -27 90 -43 43 -63 36 -77 -25 -6 -28 -20
-69 -32 -91 -34 -66 -162 -170 -162 -132 0 6 22 34 49 63 72 77 122 185 136
298 9 74 -17 136 -68 160 -57 27 -92 14 -173 -67 -39 -39 -78 -82 -87 -96 -32
-48 23 72 99 218 83 157 87 182 37 222 -37 29 -80 26 -111 -8z"/>
<path d="M8163 3705 c-44 -31 -136 -232 -213 -464 -42 -126 -82 -196 -164
-283 -75 -81 -159 -103 -193 -51 -43 65 -10 197 80 330 58 84 101 119 117 93
19 -30 10 -59 -26 -87 -76 -58 -85 -69 -90 -103 -8 -51 22 -83 77 -82 51 1 79
25 108 93 62 144 25 264 -90 288 -145 31 -281 -74 -344 -269 -29 -89 -140
-256 -187 -281 -19 -11 -21 -9 -15 18 3 17 46 118 95 225 65 142 88 203 85
222 -7 35 -48 66 -87 66 -43 0 -72 -33 -126 -140 -90 -178 -194 -338 -246
-379 -36 -28 -57 -28 -48 2 14 45 88 185 157 297 77 124 87 164 51 201 -11 11
-36 22 -55 25 -29 5 -40 0 -77 -31 -29 -26 -71 -46 -130 -66 l-87 -28 -18 22
c-53 65 -67 76 -107 87 -65 18 -188 16 -231 -2 -80 -35 -165 -135 -200 -235
-22 -64 -25 -168 -7 -210 84 -195 269 -206 438 -27 77 81 120 165 127 245 l6
57 41 5 c50 7 60 -5 40 -52 -49 -116 -69 -189 -69 -258 0 -83 16 -109 76 -122
67 -15 132 20 193 105 38 52 48 63 44 47 -4 -18 16 -81 35 -110 24 -35 67 -50
113 -39 31 8 106 76 135 122 11 19 25 34 29 34 5 0 17 -16 26 -35 23 -50 95
-110 149 -125 72 -20 144 7 242 92 25 21 47 38 49 36 1 -2 6 -26 9 -53 8 -60
14 -68 51 -63 22 2 30 9 35 33 25 120 310 520 339 475 18 -28 10 -55 -34 -127
-102 -164 -141 -274 -116 -333 20 -48 51 -64 115 -57 78 8 180 60 242 124 56
57 70 95 60 161 -7 39 -50 84 -76 80 -8 -2 -22 -30 -32 -66 -22 -78 -48 -121
-105 -171 -80 -70 -118 -58 -43 14 67 66 127 190 144 301 13 82 -31 165 -93
177 -56 11 -139 -46 -214 -146 -21 -28 -38 -47 -38 -43 0 4 43 92 96 196 103
203 107 221 57 260 -31 24 -70 26 -100 5z m-1621 -437 c54 -42 77 -69 71 -86
-3 -9 -27 -62 -53 -117 -51 -106 -92 -154 -152 -180 -36 -14 -39 -14 -58 5
-11 11 -20 30 -20 43 0 39 29 146 51 190 30 58 108 167 120 167 6 0 24 -10 41
-22z"/>
<path d="M4048 3673 c-25 -29 -38 -59 -58 -138 -10 -40 -30 -99 -44 -129 -14
-31 -23 -62 -20 -71 7 -16 64 -22 64 -6 0 5 35 44 78 88 100 99 122 132 122
178 0 73 -99 127 -142 78z"/>
<path d="M6032 3604 c-43 -34 -77 -95 -106 -190 -13 -43 -43 -138 -65 -211
-38 -120 -69 -250 -86 -359 -7 -45 10 -74 45 -74 15 0 24 16 40 71 41 136 190
467 284 629 33 58 34 101 1 135 -33 32 -71 32 -113 -1z"/>
<path d="M1085 3594 c-60 -31 -88 -83 -136 -247 -33 -114 -36 -120 -71 -138
-47 -24 -56 -51 -28 -81 18 -20 21 -31 16 -76 -3 -30 -8 -57 -10 -60 -2 -4 -9
-49 -15 -101 -13 -104 -7 -124 37 -119 26 3 28 6 51 103 18 73 91 256 105 261
7 3 39 -2 71 -11 74 -19 126 -19 171 0 59 24 76 98 33 144 -30 32 -65 31 -142
-5 -29 -13 -62 -24 -74 -24 -20 0 -21 2 -10 28 7 15 36 72 66 127 64 117 69
155 27 191 -32 28 -50 30 -91 8z"/>
<path d="M1715 3569 c-59 -30 -80 -121 -50 -219 21 -68 14 -106 -37 -220 -42
-92 -72 -128 -112 -136 -50 -9 -76 -37 -76 -83 0 -33 4 -40 30 -51 84 -35 137
30 266 322 16 37 32 68 36 68 20 0 17 -53 -6 -124 -97 -295 91 -438 266 -204
41 54 57 72 44 51 -9 -16 48 -97 92 -131 32 -25 43 -27 121 -27 77 0 93 4 151
33 36 18 82 46 102 63 41 32 53 36 44 14 -3 -8 -1 -15 5 -15 7 0 9 -10 5 -23
-8 -32 3 -65 24 -72 22 -7 50 4 50 19 0 26 81 176 149 278 70 105 176 228 197
228 5 0 11 -15 12 -32 1 -23 -10 -53 -38 -98 -110 -182 -141 -270 -120 -345
13 -47 30 -59 81 -57 39 1 105 38 159 88 26 24 50 44 54 44 3 0 6 -22 6 -49 0
-47 17 -81 40 -81 19 0 40 13 40 24 0 7 18 49 39 93 86 177 287 438 311 403
18 -27 10 -55 -36 -130 -108 -174 -146 -297 -108 -354 54 -84 172 -31 319 141
89 104 121 159 105 178 -26 31 -48 16 -113 -77 -63 -90 -116 -148 -167 -182
-60 -40 -53 -11 16 66 98 108 156 267 134 363 -5 21 -21 50 -36 66 -23 24 -36
29 -74 29 -60 0 -105 -32 -181 -129 l-26 -33 10 50 c9 42 8 54 -6 76 -32 48
-101 46 -139 -5 -11 -14 -33 -77 -49 -139 -35 -130 -56 -172 -134 -258 -68
-74 -113 -108 -126 -95 -6 6 5 26 31 54 87 95 133 180 151 283 13 78 1 131
-40 170 -65 62 -148 27 -257 -109 l-25 -30 11 28 c18 51 13 94 -16 116 -78 61
-146 -7 -179 -179 -20 -100 -49 -153 -134 -244 -54 -56 -149 -106 -204 -106
-50 0 -87 35 -87 83 l0 34 91 6 c96 7 164 30 208 70 60 55 78 164 40 240 -44
88 -94 117 -199 117 -84 0 -131 -20 -191 -82 -38 -39 -99 -148 -99 -176 0 -25
-71 -157 -113 -211 -78 -100 -127 -117 -127 -44 0 50 77 207 164 338 36 54 66
103 66 108 0 30 -35 77 -65 87 -45 15 -84 -5 -125 -66 -27 -38 -75 -73 -86
-61 -2 1 8 33 21 70 32 88 33 150 3 171 -25 18 -82 20 -113 5z m744 -248 c26
-47 -49 -164 -139 -218 -70 -42 -75 -28 -23 68 41 77 116 169 139 169 7 0 18
-8 23 -19z"/>
<path d="M4752 2919 c-18 -34 -32 -71 -32 -83 0 -61 -78 -100 -144 -72 -21 9
-40 25 -43 36 -3 11 -7 20 -9 20 -2 0 -33 -17 -70 -37 -56 -31 -77 -37 -128
-37 -76 0 -148 34 -200 96 l-36 43 0 -327 c0 -211 4 -328 10 -328 5 0 128 59
273 131 l262 131 273 -136 272 -136 0 305 0 305 -47 -24 c-116 -58 -218 -71
-273 -33 -51 34 -73 79 -73 148 0 33 -1 59 -2 59 -1 0 -16 -28 -33 -61z"/>
</g>
</svg>
